<svg width="73" height="57" viewBox="0 0 73 57" fill="none" xmlns="http://www.w3.org/2000/svg">
<path d="M25.9427 41.0343C25.1592 42.5024 22.3388 47.8222 21.3707 49.4968C20.4026 51.1714 17.3192 54.5431 16.5581 55.5925C17.4871 55.7097 18.1306 55.7321 18.7462 55.8884C20.1284 56.2289 21.1245 55.8437 21.6785 54.4984C21.9191 53.9123 23.9225 50.9537 24.5213 49.7033C25.1201 48.4529 26.9444 44.6906 28.086 42.1507C28.4609 41.319 28.9646 41.1124 29.7312 41.3971C34.0122 42.9601 38.31 44.5064 42.563 46.1475C43.4919 46.5048 44.3537 47.1523 45.1148 47.8222C46.1668 48.7432 46.0717 49.8764 44.7734 50.3565C43.9396 50.6635 43.0946 50.9761 42.2496 51.2663C42.8596 52.0311 44.4544 53.689 44.5384 53.7951C45.5345 55.118 46.8551 55.1403 48.2989 54.984C49.5021 54.8557 50.7164 54.8333 51.9252 54.7719C52.5295 54.7384 53.1339 54.7273 54.1748 54.6882C52.5631 53.2703 51.4215 52.3214 49.933 50.9482C48.4444 49.5805 47.7001 49.0335 45.361 46.3652C43.0218 43.697 42.7588 43.2727 41.6844 41.7711C40.7442 40.6212 39.9832 39.2703 39.1997 37.9474C37.6161 35.2735 35.1594 27.4529 35.1146 27.1069C35.0419 26.5096 34.6949 23.9195 34.6334 22.3397C34.5718 20.76 34.846 15.8309 34.9691 12.6435C35.0307 11.114 35.2825 9.57336 35.1594 8.06618C35.0978 7.32376 34.3815 6.63715 33.9618 5.92822C33.3127 6.45853 32.2774 6.88277 32.0927 7.54146C31.5331 9.53428 31.0407 11.6108 31.0127 13.6651C30.9735 16.3891 31.5499 20.4195 31.6451 21.8541C31.7402 23.2887 31.2701 26.8277 31.1078 27.2966C30.0782 30.2831 28.7631 34.7823 28.1028 36.2839M29.8487 39.2982C29.6193 39.2033 29.3619 38.6675 29.4346 38.4274C30.3188 35.3684 31.2589 32.3262 32.2606 29.0271C33.7548 33.4426 35.165 37.6013 36.6311 41.9274C34.3032 41.0343 32.0648 40.2025 29.8487 39.2982Z" fill="#99183A"/>
<path d="M28.1702 24.5055C27.9688 24.606 25.0252 25.2759 24.2194 25.4936C24.2194 25.6945 24.2306 25.8955 24.2362 26.0965C25.1987 26.3142 26.1556 26.5709 27.1238 26.7328C27.2581 26.7551 27.3812 26.7831 27.4931 26.8165C28.1702 26.7551 28.8473 26.6156 29.4629 26.4146C30.4142 26.102 32.8597 24.98 32.9381 24.9744C32.9381 24.9744 34.1636 24.2934 34.7848 23.9808C37.6387 22.5295 40.1793 20.6706 42.3058 18.2703C45.9489 14.1618 45.837 8.9258 42.0372 4.93457C38.5565 1.27827 34.0964 -0.329385 29.2614 0.0557828C18.3603 0.926596 9.72563 6.33011 3.21182 14.8373C-1.11393 20.492 -0.35846 25.1587 4.71156 30.2217C8.04681 33.5486 12.0144 35.9768 16.1947 38.0701C18.1085 39.0247 35.3276 45.5502 39.5862 47.1913C40.5151 47.5486 41.3769 48.1961 42.138 48.866C43.19 49.787 43.0949 50.9202 41.7966 51.4003C39.4127 52.2823 36.9728 53.1977 34.477 53.5773C30.252 54.2193 26.0213 53.689 21.8691 52.673C21.8019 52.6563 13.4862 50.1108 11.9864 49.5972C10.2461 49.0055 8.81907 49.3851 7.85095 50.8142C10.4587 51.7631 16.9333 53.8006 18.6234 54.2751C20.3134 54.744 20.4589 54.7161 21.1696 54.8333C27.1741 55.8772 33.1787 56.2121 39.1665 54.8668C39.7988 54.6602 40.448 54.5095 41.0803 54.3142C41.875 54.0741 42.6584 53.7727 43.4027 53.3987C43.8224 53.1922 44.2365 52.9577 44.6394 52.7232C44.6954 52.6842 44.7513 52.6507 44.8073 52.6116C44.9584 52.5111 45.1095 52.4051 45.2606 52.299C45.3389 52.2432 45.4117 52.1874 45.4844 52.1315C45.5236 52.1036 45.5572 52.0757 45.5963 52.0478C45.6075 52.0366 45.6299 52.0199 45.6467 52.0087C45.9321 51.7743 46.1951 51.5119 46.4189 51.2161C46.4189 51.2105 46.4189 51.2161 46.4245 51.2105C46.4245 51.2105 46.4245 51.1993 46.4413 51.1826C46.4637 51.1435 46.4861 51.11 46.5085 51.0709C46.5588 50.9928 46.6036 50.9091 46.6428 50.8197C46.6596 50.7862 46.6708 50.7583 46.682 50.7248C46.6316 50.8365 46.6932 50.6858 46.6987 50.6746C46.7211 50.5909 46.7435 50.5127 46.7547 50.4234C46.7659 50.3508 46.7995 50.2839 46.8386 50.228C47.3031 48.0175 45.9209 46.9178 44.2085 46.0135C44.1973 46.0135 44.1861 46.0024 44.1805 45.9968C44.1581 45.9912 44.1414 45.98 44.119 45.9744C44.0966 45.9633 44.0742 45.9577 44.0462 45.9465C43.9903 45.9242 44.0014 45.9298 44.0798 45.9577C44.0742 45.941 43.9903 45.9242 43.9735 45.9186C43.9287 45.9019 43.8783 45.8851 43.8336 45.8684C43.7832 45.8516 38.7468 44.4059 38.5453 44.3445C37.1295 43.9928 22.6077 38.7791 22.1377 38.606C17.0005 36.669 12.1319 34.185 7.94608 30.6459C2.38361 25.9457 1.59456 20.0566 5.85875 14.1842C11.0239 7.10044 17.9294 2.46168 26.7824 1.27269C31.4215 0.647489 36.0159 1.2057 39.6757 4.488C43.2292 7.6754 45.0143 12.8835 40.5431 17.8349C38.4222 20.1794 35.9767 22.0717 32.9381 23.11" fill="#99183A"/>
<path d="M68.7584 50.9428C67.2698 49.5752 66.5255 49.0281 64.1864 46.3599C61.8528 43.6916 61.5842 43.2673 60.5098 41.7658C59.5696 40.6158 58.8086 39.265 58.0251 37.942C56.4414 35.2681 53.9848 27.4476 53.94 27.1015C53.8673 26.5042 53.5203 23.9141 53.4587 22.3343C53.3972 20.7546 53.6714 15.8256 53.7945 12.6382C53.8561 11.1087 54.1079 9.56799 53.9848 8.06081C53.9232 7.31839 53.2069 6.63178 52.7872 5.92285C52.1381 6.45315 51.1028 6.8774 50.9181 7.53609C50.3585 9.52891 49.8661 11.6055 49.8381 13.6597C49.7989 16.3838 50.3753 20.4141 50.4705 21.8487C50.5656 23.2833 50.0955 26.8224 49.9332 27.2913C48.9036 30.2777 47.5885 34.7769 46.9281 36.2785L44.7513 41.0457C43.9678 42.5138 41.1474 47.8335 40.1793 49.5082C39.2112 51.1828 36.1278 54.5544 35.3667 55.6039C36.2956 55.7211 36.9392 55.749 37.5548 55.8997C38.937 56.2402 39.9331 55.8551 40.4871 54.5098C40.7277 53.9236 42.7311 50.9651 43.3299 49.7147C43.9287 48.4699 45.753 44.702 46.8946 42.1621C47.0345 41.8495 50.241 31.7793 51.0748 29.0329C52.4906 33.2139 53.8281 37.1661 55.2103 41.241C55.2942 41.3303 63.263 53.6948 63.347 53.8064C64.3431 55.1294 65.6637 55.1517 67.1075 54.9954C68.3107 54.867 69.525 54.8447 70.7338 54.7833C71.3381 54.7498 71.9425 54.7386 72.9834 54.6996C71.3717 53.2817 70.2301 52.3327 68.7416 50.9595L68.7584 50.9428Z" fill="#99183A"/>
</svg>
